<svg width="26" height="25" viewBox="0 0 26 25" fill="none" xmlns="http://www.w3.org/2000/svg">
<path d="M13.1018 24.5327C9.70705 24.5327 6.51545 23.2591 4.11499 20.9465C1.71454 18.6339 0.392578 15.559 0.392578 12.2885C0.392578 9.01791 1.71459 5.94311 4.11499 3.63042C6.5154 1.31774 9.70705 0.0441895 13.1018 0.0441895C16.4966 0.0441895 19.6882 1.31779 22.0886 3.63042C24.4891 5.94306 25.811 9.01791 25.811 12.2885C25.811 15.559 24.489 18.6338 22.0886 20.9465C19.6882 23.2592 16.4966 24.5327 13.1018 24.5327ZM13.1018 1.57472C6.9699 1.57472 1.98123 6.38089 1.98123 12.2885C1.98123 18.196 6.9699 23.0022 13.1018 23.0022C19.2337 23.0022 24.2224 18.196 24.2224 12.2885C24.2224 6.38089 19.2337 1.57472 13.1018 1.57472Z" fill="black"/>
<path d="M13.1018 11.5231C12.0068 11.5231 11.116 10.6649 11.116 9.60998C11.116 8.55506 12.0068 7.69681 13.1018 7.69681C14.1968 7.69681 15.0876 8.55506 15.0876 9.60998C15.0876 10.0326 15.4432 10.3752 15.882 10.3752C16.3207 10.3752 16.6763 10.0326 16.6763 9.60998C16.6763 7.97417 15.4859 6.6021 13.8961 6.25304V5.40101C13.8961 4.97839 13.5405 4.63574 13.1018 4.63574C12.6631 4.63574 12.3075 4.97839 12.3075 5.40101V6.25304C10.7177 6.6021 9.52734 7.97417 9.52734 9.60998C9.52734 11.5088 11.1308 13.0537 13.1018 13.0537C14.1968 13.0537 15.0876 13.9119 15.0876 14.9669C15.0876 16.0218 14.1968 16.88 13.1018 16.88C12.0068 16.88 11.116 16.0218 11.116 14.9669C11.116 14.5442 10.7604 14.2016 10.3217 14.2016C9.88295 14.2016 9.52734 14.5442 9.52734 14.9669C9.52734 16.6027 10.7177 17.9747 12.3075 18.3238V19.1758C12.3075 19.5984 12.6631 19.9411 13.1018 19.9411C13.5405 19.9411 13.8961 19.5984 13.8961 19.1758V18.3238C15.4859 17.9747 16.6763 16.6027 16.6763 14.9669C16.6763 13.068 15.0728 11.5231 13.1018 11.5231Z" fill="black"/>
</svg>
