<svg width="35" height="37" viewBox="0 0 35 37" fill="none" xmlns="http://www.w3.org/2000/svg">
<path d="M5.02233 36.9268H16.2054V23.8092H12.1875V19.4847H16.2054V14.0791C16.2054 11.0984 18.4584 8.67342 21.2277 8.67342H26.25V12.9979H22.2322C21.1244 12.9979 20.2232 13.9678 20.2232 15.1602V19.4847H26.0688L25.3991 23.8092H20.2232V36.9268H29.2634C32.0328 36.9268 34.2858 34.5019 34.2858 31.5212V5.43004C34.2858 2.44935 32.0328 0.0244141 29.2634 0.0244141H5.02233C2.25299 0.0244141 0 2.44935 0 5.43004V31.5212C0 34.5019 2.25299 36.9268 5.02233 36.9268ZM2.00893 5.43004C2.00893 3.64168 3.36078 2.18667 5.02233 2.18667H29.2634C30.925 2.18667 32.2768 3.64168 32.2768 5.43004V31.5212C32.2768 33.3096 30.925 34.7646 29.2634 34.7646H22.2322V25.9714H27.101L28.4402 17.3224H22.2322V15.1602H28.259V6.51117H21.2277C17.3506 6.51117 14.1965 9.90602 14.1965 14.0791V17.3224H10.1786V25.9714H14.1965V34.7646H5.02233C3.36078 34.7646 2.00893 33.3096 2.00893 31.5212V5.43004Z" fill="black"/>
</svg>
