<svg width="19" height="17" viewBox="0 0 19 17" fill="none" xmlns="http://www.w3.org/2000/svg">
<path d="M10.0017 5L10 8.854C10 9.00033 10.0628 9.1402 10.1746 9.24348L13.1573 12L14 11.221L11.1919 8.62588L11.1936 5H10.0017Z" fill="black"/>
<path d="M10.6875 0C6.50815 0 3.04921 3.17386 2.4699 7.28572H0L2.96875 10.3214L5.9375 7.28572H3.66975C4.23779 3.84549 7.16393 1.2143 10.6875 1.2143C14.6164 1.2143 17.8125 4.48243 17.8125 8.50002C17.8125 12.5176 14.6165 15.7857 10.6875 15.7857C8.47893 15.7857 6.43097 14.7636 5.06891 12.9812L4.13306 13.7283C5.72179 15.8071 8.11071 17 10.6875 17C15.2711 17 19 13.1864 19 8.50002C19 3.81366 15.2711 3.52522e-05 10.6875 0Z" fill="black"/>
</svg>
