<svg width="35" height="37" viewBox="0 0 35 37" fill="none" xmlns="http://www.w3.org/2000/svg">
<g clip-path="url(#clip0)">
<path d="M25.7192 0.0244141H9.99512C4.87759 0.0244141 0.714294 4.50545 0.714294 10.0135V26.9379C0.714294 32.4457 4.87759 36.9268 9.99512 36.9268H25.7194C30.8367 36.9268 35 32.4457 35 26.9379V10.0135C35 4.50545 30.8367 0.0244141 25.7192 0.0244141V0.0244141ZM32.99 26.9379C32.99 31.2528 29.7284 34.7634 25.7192 34.7634H9.99512C5.9859 34.7634 2.72427 31.2528 2.72427 26.9379V10.0135C2.72427 5.69834 5.9859 2.18779 9.99512 2.18779H25.7194C29.7284 2.18779 32.99 5.69834 32.99 10.0135V26.9379Z" fill="black"/>
<path d="M17.8572 8.38538C12.6878 8.38538 8.48242 12.9117 8.48242 18.4756C8.48242 24.0394 12.6878 28.5658 17.8572 28.5658C23.0265 28.5658 27.2319 24.0394 27.2319 18.4756C27.2319 12.9117 23.0265 8.38538 17.8572 8.38538ZM17.8572 26.4024C13.7964 26.4024 10.4924 22.8465 10.4924 18.4756C10.4924 14.1049 13.7964 10.5487 17.8572 10.5487C21.9182 10.5487 25.2219 14.1049 25.2219 18.4756C25.2219 22.8465 21.9182 26.4024 17.8572 26.4024Z" fill="black"/>
<path d="M27.456 4.802C25.9284 4.802 24.6859 6.13961 24.6859 7.78354C24.6859 9.42775 25.9284 10.7654 27.456 10.7654C28.9837 10.7654 30.2264 9.42775 30.2264 7.78354C30.2264 6.13933 28.9837 4.802 27.456 4.802ZM27.456 8.6017C27.037 8.6017 26.6959 8.23457 26.6959 7.78354C26.6959 7.33223 27.037 6.96538 27.456 6.96538C27.8753 6.96538 28.2164 7.33223 28.2164 7.78354C28.2164 8.23457 27.8753 8.6017 27.456 8.6017Z" fill="black"/>
</g>
<defs>
<clipPath id="clip0">
<rect width="34.2858" height="36.9024" fill="white" transform="translate(0.714294 0.0244141)"/>
</clipPath>
</defs>
</svg>
