<svg width="13" height="13" viewBox="0 0 13 13" fill="none" xmlns="http://www.w3.org/2000/svg">
<path d="M2.649 8.64152C3.93122 10.1743 5.47473 11.3811 7.23644 12.235C7.90718 12.5528 8.8042 12.93 9.80358 12.9946C9.86554 12.9973 9.9248 13 9.98675 13C10.6575 13 11.1962 12.7683 11.6353 12.2915C11.638 12.2889 11.6434 12.2835 11.6461 12.2781C11.8023 12.0895 11.9801 11.9198 12.166 11.7393C12.2926 11.6181 12.4219 11.4915 12.5458 11.3622C13.1196 10.7642 13.1196 10.0046 12.5404 9.4254L10.9215 7.80646C10.6467 7.52093 10.3181 7.37008 9.97329 7.37008C9.62849 7.37008 9.29716 7.52093 9.01431 7.80377L8.04995 8.76813C7.96106 8.71695 7.86947 8.67116 7.78327 8.62806C7.67552 8.57418 7.57585 8.523 7.48696 8.46643C6.6088 7.90883 5.81145 7.18152 5.04912 6.24679C4.66392 5.75922 4.40532 5.34977 4.22484 4.93224C4.47805 4.70327 4.7151 4.46353 4.94407 4.22918C5.02488 4.14567 5.10838 4.06216 5.19189 3.97866C5.48281 3.68773 5.63905 3.35102 5.63905 3.00891C5.63905 2.6668 5.48551 2.33009 5.19189 2.03916L4.38915 1.23643C4.29487 1.14215 4.20598 1.05056 4.11439 0.956278C3.93661 0.773104 3.75074 0.584542 3.56756 0.414836C3.29011 0.142768 2.96416 0 2.61936 0C2.27726 0 1.94862 0.142768 1.66039 0.41753L0.652932 1.42499C0.286582 1.79134 0.0791641 2.23581 0.0360642 2.75031C-0.0151169 3.39411 0.103408 4.07833 0.410495 4.9053C0.8819 6.18483 1.59305 7.37277 2.649 8.64152ZM0.693338 2.80688C0.725663 2.44861 0.863044 2.14961 1.12164 1.89101L2.12372 0.888935C2.27995 0.738085 2.45235 0.659967 2.61936 0.659967C2.78368 0.659967 2.9507 0.738085 3.10424 0.894322C3.28472 1.06133 3.45443 1.23643 3.6376 1.4223C3.72919 1.51658 3.82347 1.61086 3.91775 1.70783L4.72049 2.51057C4.8875 2.67758 4.9737 2.84729 4.9737 3.0143C4.9737 3.18131 4.8875 3.35102 4.72049 3.51803C4.63698 3.60153 4.55347 3.68773 4.46997 3.77124C4.21945 4.02445 3.98509 4.26419 3.72649 4.49316C3.72111 4.49855 3.71841 4.50124 3.71303 4.50663C3.48944 4.73021 3.52446 4.94302 3.57834 5.10464C3.58103 5.11272 3.58373 5.11811 3.58642 5.12619C3.79384 5.62453 4.08207 6.09863 4.53192 6.66432C5.34005 7.661 6.19127 8.43411 7.12869 9.02942C7.24452 9.10485 7.36843 9.16411 7.48427 9.22337C7.59202 9.27725 7.69168 9.32843 7.78058 9.385C7.79135 9.39038 7.79943 9.39577 7.81021 9.40116C7.8991 9.44695 7.9853 9.4685 8.0715 9.4685C8.287 9.4685 8.42708 9.33112 8.47287 9.28533L9.48033 8.27787C9.63657 8.12163 9.80627 8.03813 9.97329 8.03813C10.178 8.03813 10.345 8.16473 10.4501 8.27787L12.0744 9.8995C12.3977 10.2228 12.395 10.5729 12.0663 10.915C11.9532 11.0363 11.8347 11.1521 11.7081 11.2733C11.5195 11.4565 11.3229 11.645 11.1451 11.8579C10.8353 12.1919 10.4662 12.3481 9.98945 12.3481C9.94365 12.3481 9.89517 12.3454 9.84937 12.3427C8.96583 12.2862 8.14423 11.9414 7.52737 11.6477C5.85186 10.8369 4.38107 9.6867 3.16081 8.22669C2.15604 7.0172 1.47991 5.89121 1.03275 4.68442C0.755294 3.94364 0.650238 3.34832 0.693338 2.80688Z" fill="black"/>
</svg>
