<svg width="17" height="17" viewBox="0 0 17 17" fill="none" xmlns="http://www.w3.org/2000/svg">
<path d="M3.46408 11.3005C5.14083 13.3048 7.15927 14.8829 9.46305 15.9996C10.3402 16.4153 11.5132 16.9084 12.8201 16.993C12.9011 16.9965 12.9786 17 13.0596 17C13.9367 17 14.6413 16.6971 15.2154 16.0736C15.219 16.07 15.226 16.063 15.2295 16.0559C15.4338 15.8094 15.6663 15.5874 15.9094 15.3514C16.0749 15.1929 16.244 15.0274 16.4061 14.8583C17.1564 14.0763 17.1564 13.0829 16.399 12.3255L14.2819 10.2085C13.9226 9.83506 13.4929 9.6378 13.042 9.6378C12.5911 9.6378 12.1578 9.83506 11.788 10.2049L10.5269 11.466C10.4106 11.3991 10.2909 11.3392 10.1781 11.2828C10.0372 11.2124 9.90689 11.1455 9.79065 11.0715C8.64228 10.3423 7.5996 9.39121 6.6027 8.16888C6.09897 7.53129 5.76081 6.99586 5.52479 6.44986C5.85592 6.15044 6.1659 5.83693 6.46532 5.53046C6.571 5.42126 6.6802 5.31206 6.7894 5.20286C7.16984 4.82242 7.37415 4.3821 7.37415 3.93473C7.37415 3.48736 7.17336 3.04704 6.7894 2.6666L5.73967 1.61687C5.61638 1.49358 5.50013 1.37381 5.38037 1.25052C5.14788 1.01098 4.90482 0.764401 4.66528 0.542478C4.30245 0.186697 3.87622 0 3.42533 0C2.97796 0 2.5482 0.186697 2.17129 0.546001L0.85384 1.86345C0.374768 2.34252 0.103529 2.92375 0.0471674 3.59656C-0.0197618 4.43846 0.135232 5.3332 0.536807 6.41463C1.15326 8.08786 2.08322 9.64132 3.46408 11.3005ZM0.906679 3.67053C0.94895 3.20203 1.1286 2.81102 1.46677 2.47286L2.77717 1.16245C2.98148 0.965189 3.20693 0.863034 3.42533 0.863034C3.64021 0.863034 3.85861 0.965189 4.0594 1.1695C4.29541 1.3879 4.51733 1.61687 4.75687 1.85993C4.87664 1.98322 4.99993 2.10651 5.12322 2.23332L6.17295 3.28305C6.39135 3.50145 6.50407 3.72337 6.50407 3.94177C6.50407 4.16017 6.39135 4.3821 6.17295 4.6005C6.06375 4.7097 5.95455 4.82242 5.84535 4.93162C5.51775 5.26274 5.21128 5.57625 4.87311 5.87567C4.86607 5.88272 4.86255 5.88624 4.8555 5.89329C4.56313 6.18566 4.60892 6.46395 4.67937 6.6753C4.68289 6.68587 4.68642 6.69291 4.68994 6.70348C4.96118 7.35516 5.3381 7.97513 5.92637 8.71488C6.98314 10.0182 8.09628 11.0292 9.32214 11.8077C9.47361 11.9063 9.63565 11.9838 9.78712 12.0613C9.92803 12.1318 10.0584 12.1987 10.1746 12.2727C10.1887 12.2797 10.1993 12.2868 10.2134 12.2938C10.3296 12.3537 10.4423 12.3819 10.555 12.3819C10.8369 12.3819 11.02 12.2022 11.0799 12.1424L12.3974 10.8249C12.6017 10.6206 12.8236 10.5114 13.042 10.5114C13.3097 10.5114 13.5281 10.677 13.6655 10.8249L15.7896 12.9455C16.2123 13.3682 16.2088 13.8262 15.779 14.2735C15.6311 14.432 15.4761 14.5835 15.3105 14.742C15.064 14.9816 14.8068 15.2281 14.5743 15.5064C14.1692 15.9432 13.6866 16.1475 13.0631 16.1475C13.0032 16.1475 12.9398 16.144 12.88 16.1405C11.7245 16.0665 10.6502 15.6156 9.84348 15.2317C7.65243 14.1714 5.7291 12.6672 4.13337 10.758C2.81944 9.17634 1.93527 7.7039 1.35053 6.12578C0.987698 5.15707 0.850318 4.37857 0.906679 3.67053Z" fill="black"/>
</svg>
