<svg width="25" height="25" viewBox="0 0 25 25" fill="none" xmlns="http://www.w3.org/2000/svg">
<path d="M10.7291 2.18504C11.3098 0.30553 13.9702 0.30553 14.5509 2.18504L15.9404 6.68257C16.1993 7.52065 16.9741 8.0922 17.8513 8.0922L22.554 8.0922C24.4669 8.0922 25.2883 10.5199 23.7683 11.6814L19.7932 14.7187C19.1272 15.2275 18.8492 16.0976 19.0966 16.8983L20.5735 21.6789C21.1484 23.5394 18.9957 25.0407 17.4484 23.8585L13.8543 21.1122C13.1374 20.5645 12.1426 20.5645 11.4257 21.1122L7.83161 23.8585C6.28432 25.0407 4.13164 23.5394 4.70644 21.6789L6.18343 16.8983C6.43081 16.0976 6.15274 15.2275 5.48683 14.7187L1.51174 11.6814C-0.00828671 10.5199 0.813059 8.0922 2.72602 8.0922L7.42871 8.0922C8.30587 8.0922 9.08067 7.52065 9.33959 6.68257L10.7291 2.18504Z" fill="#C85D6C"/>
</svg>
