<svg width="25" height="25" viewBox="0 0 25 25" fill="none" xmlns="http://www.w3.org/2000/svg">
<path d="M11.2479 2.33263C11.6834 0.922999 13.6787 0.922998 14.1142 2.33263L15.5037 6.83017C15.8274 7.87776 16.7958 8.5922 17.8923 8.5922L22.595 8.5922C24.0297 8.5922 24.6457 10.413 23.5057 11.2841L19.5306 14.3214C18.6982 14.9575 18.3506 16.045 18.6599 17.0459L20.1368 21.8265C20.5679 23.2219 18.9534 24.3479 17.793 23.4612L14.1989 20.7149C13.3028 20.0302 12.0592 20.0302 11.1632 20.7149L7.56906 23.4612C6.40859 24.3479 4.79408 23.2219 5.22518 21.8265L6.70216 17.0459C7.01139 16.045 6.66381 14.9575 5.83142 14.3214L1.85633 11.2841C0.716306 10.413 1.33232 8.5922 2.76704 8.5922L7.46973 8.5922C8.56618 8.5922 9.53467 7.87776 9.85833 6.83016L11.2479 2.33263Z" stroke="black"/>
</svg>
